<?xml version="1.0" encoding="UTF-8"?>
<svg xmlns="http://www.w3.org/2000/svg" viewBox="0 0 128 128" role="img" aria-label="MicroRealm Lab">
  <defs>
    <linearGradient id="tile" x1="18" y1="15" x2="112" y2="118" gradientUnits="userSpaceOnUse">
      <stop offset="0" stop-color="#18202c"/>
      <stop offset="1" stop-color="#07090d"/>
    </linearGradient>
    <linearGradient id="star" x1="32" y1="24" x2="96" y2="100" gradientUnits="userSpaceOnUse">
      <stop offset="0" stop-color="#6ca4ff"/>
      <stop offset="1" stop-color="#2467e8"/>
    </linearGradient>
  </defs>
  <rect x="8" y="8" width="112" height="112" rx="30" fill="url(#tile)"/>
  <path fill="url(#star)" d="M64 24c5.4 22.8 10.2 27.6 33 33-22.8 5.4-27.6 10.2-33 33-5.4-22.8-10.2-27.6-33-33 22.8-5.4 27.6-10.2 33-33Z"/>
  <circle cx="64" cy="57" r="8" fill="#ff9a2f"/>
  <path fill="#f8f3e7" d="M63.8 37.5c3.1 11.3 6.4 14.6 17.7 17.7-11.3 3.1-14.6 6.4-17.7 17.7-3.1-11.3-6.4-14.6-17.7-17.7 11.3-3.1 14.6-6.4 17.7-17.7Z"/>
  <rect x="35" y="94" width="58" height="8" rx="4" fill="#f8f3e7" opacity="0.9"/>
</svg>
