<?xml version="1.0" encoding="UTF-8"?>
<svg xmlns="http://www.w3.org/2000/svg" viewBox="0 0 1440 900" width="1440" height="900" fill="none" aria-hidden="true">
  <g stroke="#c3d9f7" stroke-width="3" opacity="0.85">
    <circle cx="250" cy="180" r="48"/>
    <ellipse cx="250" cy="180" rx="82" ry="28" transform="rotate(-18 250 180)"/>
    <circle cx="1180" cy="620" r="36"/>
    <ellipse cx="1180" cy="620" rx="62" ry="22" transform="rotate(20 1180 620)"/>
  </g>
  <g fill="#bcd6fb">
    <path d="M180 494 C183.38 509.08 189.08 514.62 206 520 C189.08 525.38 183.38 530.92 180 546 C176.62 530.92 170.92 525.38 154 520 C170.92 514.62 176.62 509.08 180 494Z"/>
    <path d="M1240 230 C1243.9 247.4 1252.6 256.1 1270 260 C1252.6 263.9 1243.9 272.6 1240 290 C1236.1 272.6 1227.4 263.9 1210 260 C1227.4 256.1 1236.1 247.4 1240 230Z"/>
    <path d="M640 738 C642.86 750.76 649.24 757.14 662 760 C649.24 762.86 642.86 769.24 640 782 C637.14 769.24 630.76 762.86 618 760 C630.76 757.14 637.14 750.76 640 738Z"/>
  </g>
  <g fill="#cfe1fb">
    <path d="M300 284 C302.08 293.28 306.72 297.92 316 300 C306.72 302.08 302.08 306.72 300 316 C297.92 306.72 293.28 302.08 284 300 C293.28 297.92 297.92 293.28 300 284Z"/>
    <path d="M1320 502 C1322.34 512.44 1327.56 517.66 1338 520 C1327.56 522.34 1322.34 527.56 1320 538 C1317.66 527.56 1312.44 522.34 1302 520 C1312.44 517.66 1317.66 512.44 1320 502Z"/>
    <path d="M760 120 C762.6 131.6 768.4 137.4 780 140 C768.4 142.6 762.6 148.4 760 160 C757.4 148.4 751.6 142.6 740 140 C751.6 137.4 757.4 131.6 760 120Z"/>
    <path d="M1100 726 C1101.82 734.12 1105.88 738.18 1114 740 C1105.88 741.82 1101.82 745.88 1100 754 C1098.18 745.88 1094.12 741.82 1086 740 C1094.12 738.18 1098.18 734.12 1100 726Z"/>
    <path d="M90 742 C92.34 752.44 97.56 757.66 108 760 C97.56 762.34 92.34 767.56 90 778 C87.66 767.56 82.44 762.34 72 760 C82.44 757.66 87.66 752.44 90 742Z"/>
  </g>
</svg>
